P3
# Created by ppm-class, by Dr. Jan Pearce
8 10
255
-115 -115 -115 -135 -135 -135 -155 -155 -155 -175 -175 -175 -195 -195 -195 -215 -215 -215 -235 -235 -235 -255 -255 -255 
-135 -135 -135 -192 -183 -51 -192 -183 -51 -192 -183 -51 -192 -183 -51 -3 -3 0 0 0 0 -240 -240 -240 
-150 -150 -150 0 0 0 -192 -183 -51 0 0 0 -192 -183 -51 0 0 0 0 0 0 -225 -225 -225 
-165 -165 -165 0 0 0 -192 -183 -51 -192 -183 -51 -192 -183 -51 0 0 0 0 0 0 -210 -210 -210 
-180 -180 -180 0 0 0 -192 -183 -51 0 0 0 -192 -183 -51 -192 -183 -51 -192 -183 -51 -195 -195 -195 
-195 -195 -195 -192 -183 -51 -192 -183 -51 -192 -183 -51 -192 -183 -51 0 0 0 -192 -183 -51 -180 -180 -180 
-210 -210 -210 0 0 0 0 0 0 -192 -183 -51 0 0 0 -1 -1 -1 0 0 0 -165 -165 -165 
-225 -225 -225 0 0 0 0 0 0 -192 -183 -51 0 0 0 0 0 0 -192 -183 -51 -150 -150 -150 
-240 -240 -240 -3 -3 -2 0 0 0 -192 -183 -51 -192 -183 -51 -192 -183 -51 -192 -183 -51 -135 -135 -135 
-255 -255 -255 -235 -235 -235 -215 -215 -215 -195 -195 -195 -175 -175 -175 -155 -155 -155 -135 -135 -135 -115 -115 -115 
