P3
# Created by ppm-class, by Dr. Jan Pearce
8 10
255
140 140 140 120 120 120 100 100 100 80 80 80 60 60 60 40 40 40 20 20 20 0 0 0 
120 120 120 204 72 63 204 72 63 204 72 63 204 72 63 255 252 252 255 255 255 15 15 15 
105 105 105 255 255 255 204 72 63 255 255 255 204 72 63 255 255 255 255 255 255 30 30 30 
90 90 90 255 255 255 204 72 63 204 72 63 204 72 63 255 255 255 255 255 255 45 45 45 
75 75 75 255 255 255 204 72 63 255 255 255 204 72 63 204 72 63 204 72 63 60 60 60 
60 60 60 204 72 63 204 72 63 204 72 63 204 72 63 255 255 255 204 72 63 75 75 75 
45 45 45 255 255 255 255 255 255 204 72 63 255 255 255 254 254 254 255 255 255 90 90 90 
30 30 30 255 255 255 255 255 255 204 72 63 255 255 255 255 255 255 204 72 63 105 105 105 
15 15 15 253 252 252 255 255 255 204 72 63 204 72 63 204 72 63 204 72 63 120 120 120 
0 0 0 20 20 20 40 40 40 60 60 60 80 80 80 100 100 100 120 120 120 140 140 140 
